<svg width="15" height="15" viewBox="0 0 15 15" fill="none" xmlns="http://www.w3.org/2000/svg">
<g clip-path="url(#clip0_616_76)">
<path d="M8.89968 7.72061C9.22055 7.75483 9.54501 7.71653 9.8491 7.60854C10.1532 7.50055 10.4291 7.32563 10.6566 7.0967L14.1276 3.6256C14.5317 3.22483 14.7603 2.68016 14.7633 2.11107C14.7665 1.8309 14.7135 1.55292 14.6076 1.29353C14.5016 1.03414 14.3448 0.79859 14.1464 0.60076C13.9506 0.404071 13.7176 0.248221 13.4611 0.142248C13.2046 0.0362741 12.9296 -0.0177136 12.652 -0.0165842H12.6366C12.0676 -0.0133567 11.5232 0.215206 11.1225 0.619041L7.6514 4.09014C7.39935 4.34077 7.21316 4.64981 7.10938 4.98977C7.0056 5.32973 6.98745 5.69006 7.05655 6.03873C7.07314 6.10027 7.1125 6.1532 7.16666 6.18681C7.22082 6.22042 7.28573 6.23219 7.34823 6.21973C7.41074 6.20728 7.46618 6.17153 7.50332 6.11974C7.54046 6.06794 7.55653 6.00396 7.54827 5.94076C7.49518 5.67297 7.50917 5.39621 7.589 5.13515C7.66882 4.87408 7.812 4.63682 8.00577 4.44451L11.4769 0.973416C11.7846 0.662762 12.203 0.486924 12.6403 0.48451C13.0973 0.48451 13.4864 0.648572 13.7925 0.954666C14.0986 1.26076 14.2659 1.67045 14.2631 2.10685C14.2604 2.54414 14.0844 2.96252 13.7737 3.27029L10.3026 6.74139C10.1277 6.91694 9.91574 7.05116 9.68224 7.13421C9.44873 7.21726 9.19961 7.24705 8.95311 7.22139C8.88713 7.21481 8.8212 7.23448 8.76961 7.27615C8.71802 7.31783 8.68493 7.37814 8.67749 7.44404C8.67385 7.4768 8.67671 7.50996 8.68591 7.54161C8.69512 7.57326 8.71049 7.60278 8.73113 7.62848C8.75177 7.65418 8.77729 7.67554 8.80622 7.69135C8.83514 7.70716 8.8669 7.7171 8.89968 7.72061ZM7.09687 10.909C7.36019 10.649 7.55167 10.3252 7.65263 9.96918C7.75359 9.61314 7.76059 9.23703 7.67296 8.87748C7.66549 8.84531 7.65168 8.81495 7.63234 8.78818C7.613 8.76141 7.58852 8.73877 7.56032 8.72157C7.53213 8.70438 7.50079 8.69297 7.46813 8.68803C7.43548 8.68309 7.40217 8.68471 7.37015 8.69279C7.33815 8.70049 7.30799 8.71443 7.28139 8.7338C7.25479 8.75316 7.23226 8.77759 7.21511 8.80567C7.19796 8.83375 7.18651 8.86494 7.18142 8.89745C7.17633 8.92996 7.1777 8.96316 7.18546 8.99514C7.25258 9.27132 7.24702 9.56018 7.1693 9.83357C7.09159 10.107 6.94438 10.3556 6.74202 10.5551L3.27093 14.0262C2.96319 14.3369 2.54476 14.5127 2.10749 14.5151C1.89362 14.5188 1.68124 14.479 1.4832 14.3982C1.28515 14.3174 1.10556 14.1972 0.955303 14.045C0.803944 13.8941 0.684358 13.7144 0.603607 13.5165C0.522856 13.3186 0.482576 13.1065 0.485146 12.8928C0.487796 12.4554 0.663588 12.0369 0.974053 11.7289L4.44515 8.25779C4.62099 8.07987 4.83503 7.94431 5.07104 7.86139C5.30706 7.77847 5.55885 7.75037 5.80733 7.7792C5.87315 7.78536 5.93879 7.76581 5.99052 7.72466C6.04224 7.6835 6.07604 7.62393 6.08483 7.55842C6.09222 7.49237 6.07313 7.42608 6.03175 7.37407C5.99037 7.32206 5.93007 7.28857 5.86405 7.28092C5.54068 7.24378 5.2131 7.28046 4.90595 7.3882C4.5988 7.49594 4.32008 7.67194 4.09077 7.90295L0.619678 11.374C0.215815 11.7749 -0.0127412 12.3195 -0.0159473 12.8886C-0.0191303 13.1687 0.0338116 13.4467 0.139757 13.7061C0.245703 13.9655 0.402508 14.2011 0.600928 14.3989C0.999365 14.7973 1.52905 15.0162 2.0953 15.0162H2.11077C2.67967 15.013 3.22411 14.7844 3.62483 14.3806L7.09687 10.909Z" fill="black"/>
<path d="M10.6566 4.15847C10.6333 4.13516 10.6057 4.11668 10.5753 4.10407C10.5449 4.09145 10.5123 4.08496 10.4794 4.08496C10.4465 4.08496 10.4139 4.09145 10.3835 4.10407C10.3531 4.11668 10.3254 4.13516 10.3022 4.15847L3.97406 10.4866C3.95079 10.5099 3.93233 10.5375 3.91974 10.5679C3.90715 10.5983 3.90067 10.6309 3.90067 10.6638C3.90067 10.6967 3.90715 10.7293 3.91974 10.7597C3.93233 10.7901 3.95079 10.8177 3.97406 10.841C3.99733 10.8642 4.02495 10.8827 4.05535 10.8953C4.08576 10.9079 4.11834 10.9144 4.15125 10.9144C4.18415 10.9144 4.21674 10.9079 4.24714 10.8953C4.27754 10.8827 4.30517 10.8642 4.32843 10.841L10.6566 4.51284C10.6799 4.48959 10.6983 4.46197 10.711 4.43157C10.7236 4.40116 10.7301 4.36857 10.7301 4.33565C10.7301 4.30274 10.7236 4.27014 10.711 4.23974C10.6983 4.20933 10.6799 4.18172 10.6566 4.15847Z" fill="black"/>
</g>
<defs>
<clipPath id="clip0_616_76">
<rect width="15" height="15" fill="white"/>
</clipPath>
</defs>
</svg>
